<mxfile host="Electron" modified="2024-02-14T16:40:05.982Z" agent="Mozilla/5.0 (Windows NT 10.0; Win64; x64) AppleWebKit/537.36 (KHTML, like Gecko) draw.io/22.0.2 Chrome/114.0.5735.289 Electron/25.8.4 Safari/537.36" etag="qzZA43fYAMJEJ1qbEDer" version="22.0.2" type="device">
  <diagram name="Page-1" id="tDQPC07DHxVJwhoF5Cgd">
    <mxGraphModel dx="1418" dy="828" grid="1" gridSize="10" guides="1" tooltips="1" connect="1" arrows="1" fold="1" page="1" pageScale="1" pageWidth="1200" pageHeight="1200" math="0" shadow="0">
      <root>
        <mxCell id="0" />
        <mxCell id="1" parent="0" />
        <mxCell id="YNdgiMxRowiNRwup1wCQ-7" style="edgeStyle=orthogonalEdgeStyle;rounded=0;orthogonalLoop=1;jettySize=auto;html=1;entryX=0.5;entryY=0;entryDx=0;entryDy=0;strokeWidth=3;shape=link;" parent="1" source="YNdgiMxRowiNRwup1wCQ-1" target="YNdgiMxRowiNRwup1wCQ-2" edge="1">
          <mxGeometry relative="1" as="geometry">
            <Array as="points">
              <mxPoint x="280" y="420" />
            </Array>
          </mxGeometry>
        </mxCell>
        <mxCell id="YNdgiMxRowiNRwup1wCQ-8" style="edgeStyle=orthogonalEdgeStyle;rounded=0;orthogonalLoop=1;jettySize=auto;html=1;entryX=0.5;entryY=0;entryDx=0;entryDy=0;strokeWidth=3;shape=link;" parent="1" source="YNdgiMxRowiNRwup1wCQ-1" target="YNdgiMxRowiNRwup1wCQ-3" edge="1">
          <mxGeometry relative="1" as="geometry">
            <Array as="points">
              <mxPoint x="920" y="420" />
            </Array>
          </mxGeometry>
        </mxCell>
        <mxCell id="YNdgiMxRowiNRwup1wCQ-1" value="&lt;font style=&quot;font-size: 14px;&quot;&gt;&lt;b&gt;ISP&lt;/b&gt;&lt;/font&gt;" style="rounded=0;whiteSpace=wrap;html=1;strokeWidth=3;" parent="1" vertex="1">
          <mxGeometry x="480" y="360" width="240" height="120" as="geometry" />
        </mxCell>
        <mxCell id="YNdgiMxRowiNRwup1wCQ-9" style="edgeStyle=orthogonalEdgeStyle;rounded=0;orthogonalLoop=1;jettySize=auto;html=1;entryX=0.5;entryY=0;entryDx=0;entryDy=0;strokeWidth=3;" parent="1" source="YNdgiMxRowiNRwup1wCQ-2" target="YNdgiMxRowiNRwup1wCQ-5" edge="1">
          <mxGeometry relative="1" as="geometry" />
        </mxCell>
        <mxCell id="YNdgiMxRowiNRwup1wCQ-2" value="&lt;span style=&quot;font-size: 14px;&quot;&gt;&lt;b&gt;HQ-R&lt;/b&gt;&lt;/span&gt;" style="rounded=0;whiteSpace=wrap;html=1;strokeWidth=3;" parent="1" vertex="1">
          <mxGeometry x="160" y="640" width="240" height="120" as="geometry" />
        </mxCell>
        <mxCell id="YNdgiMxRowiNRwup1wCQ-12" style="edgeStyle=orthogonalEdgeStyle;rounded=0;orthogonalLoop=1;jettySize=auto;html=1;entryX=0.5;entryY=0;entryDx=0;entryDy=0;strokeWidth=3;" parent="1" source="YNdgiMxRowiNRwup1wCQ-3" target="YNdgiMxRowiNRwup1wCQ-6" edge="1">
          <mxGeometry relative="1" as="geometry" />
        </mxCell>
        <mxCell id="YNdgiMxRowiNRwup1wCQ-3" value="&lt;span style=&quot;font-size: 14px;&quot;&gt;&lt;b&gt;BR-R&lt;/b&gt;&lt;/span&gt;" style="rounded=0;whiteSpace=wrap;html=1;strokeWidth=3;" parent="1" vertex="1">
          <mxGeometry x="800" y="640" width="240" height="120" as="geometry" />
        </mxCell>
        <mxCell id="YNdgiMxRowiNRwup1wCQ-11" style="edgeStyle=orthogonalEdgeStyle;rounded=0;orthogonalLoop=1;jettySize=auto;html=1;entryX=0.5;entryY=0;entryDx=0;entryDy=0;strokeWidth=3;shape=link;" parent="1" source="YNdgiMxRowiNRwup1wCQ-4" target="YNdgiMxRowiNRwup1wCQ-1" edge="1">
          <mxGeometry relative="1" as="geometry" />
        </mxCell>
        <mxCell id="YNdgiMxRowiNRwup1wCQ-4" value="&lt;font style=&quot;font-size: 14px;&quot;&gt;&lt;b&gt;CLI&lt;/b&gt;&lt;/font&gt;" style="rounded=0;whiteSpace=wrap;html=1;strokeWidth=3;" parent="1" vertex="1">
          <mxGeometry x="480" y="80" width="240" height="120" as="geometry" />
        </mxCell>
        <mxCell id="YNdgiMxRowiNRwup1wCQ-5" value="&lt;font style=&quot;font-size: 14px;&quot;&gt;&lt;b&gt;HQ-SRV&lt;/b&gt;&lt;/font&gt;" style="rounded=0;whiteSpace=wrap;html=1;strokeWidth=3;" parent="1" vertex="1">
          <mxGeometry x="160" y="1000" width="240" height="120" as="geometry" />
        </mxCell>
        <mxCell id="YNdgiMxRowiNRwup1wCQ-6" value="&lt;font style=&quot;font-size: 14px;&quot;&gt;&lt;b&gt;BR-SRV&lt;/b&gt;&lt;/font&gt;" style="rounded=0;whiteSpace=wrap;html=1;strokeWidth=3;" parent="1" vertex="1">
          <mxGeometry x="800" y="1000" width="240" height="120" as="geometry" />
        </mxCell>
        <mxCell id="YNdgiMxRowiNRwup1wCQ-13" value="&lt;font size=&quot;1&quot; style=&quot;&quot;&gt;&lt;b style=&quot;font-size: 16px;&quot;&gt;192.168.1.0/24&lt;br&gt;2000:1::1:0/112&lt;br&gt;&lt;/b&gt;&lt;/font&gt;" style="text;html=1;strokeColor=none;fillColor=none;align=center;verticalAlign=middle;whiteSpace=wrap;rounded=0;" parent="1" vertex="1">
          <mxGeometry x="270" y="850" width="150" height="60" as="geometry" />
        </mxCell>
        <mxCell id="YNdgiMxRowiNRwup1wCQ-14" value="&lt;font size=&quot;1&quot; style=&quot;&quot;&gt;&lt;b style=&quot;font-size: 16px;&quot;&gt;192.168.2.0/24&lt;br&gt;&lt;/b&gt;&lt;/font&gt;&lt;b style=&quot;border-color: var(--border-color); font-size: 16px;&quot;&gt;2000:2::1:0/112&lt;/b&gt;&lt;font size=&quot;1&quot; style=&quot;&quot;&gt;&lt;b style=&quot;font-size: 16px;&quot;&gt;&lt;br&gt;&lt;/b&gt;&lt;/font&gt;" style="text;html=1;strokeColor=none;fillColor=none;align=center;verticalAlign=middle;whiteSpace=wrap;rounded=0;" parent="1" vertex="1">
          <mxGeometry x="910" y="850" width="150" height="60" as="geometry" />
        </mxCell>
        <mxCell id="YNdgiMxRowiNRwup1wCQ-15" value="&lt;span style=&quot;font-size: 16px;&quot;&gt;&lt;b&gt;172.16.1.0/30&lt;br&gt;2000:1::/124&lt;br&gt;&lt;/b&gt;&lt;/span&gt;" style="text;html=1;strokeColor=none;fillColor=none;align=center;verticalAlign=middle;whiteSpace=wrap;rounded=0;" parent="1" vertex="1">
          <mxGeometry x="270" y="420" width="150" height="60" as="geometry" />
        </mxCell>
        <mxCell id="YNdgiMxRowiNRwup1wCQ-16" value="&lt;span style=&quot;font-size: 16px;&quot;&gt;&lt;b&gt;172.16.2.0/30&lt;br&gt;2000:2::/124&lt;br&gt;&lt;/b&gt;&lt;/span&gt;" style="text;html=1;strokeColor=none;fillColor=none;align=center;verticalAlign=middle;whiteSpace=wrap;rounded=0;" parent="1" vertex="1">
          <mxGeometry x="780" y="420" width="150" height="60" as="geometry" />
        </mxCell>
        <mxCell id="YNdgiMxRowiNRwup1wCQ-17" value="" style="endArrow=classic;startArrow=classic;html=1;rounded=0;exitX=1;exitY=0.5;exitDx=0;exitDy=0;entryX=0;entryY=0.5;entryDx=0;entryDy=0;shape=link;strokeWidth=3;endSize=6;targetPerimeterSpacing=0;sourcePerimeterSpacing=0;startSize=6;width=48;dashed=1;" parent="1" source="YNdgiMxRowiNRwup1wCQ-2" target="YNdgiMxRowiNRwup1wCQ-3" edge="1">
          <mxGeometry width="50" height="50" relative="1" as="geometry">
            <mxPoint x="555" y="620" as="sourcePoint" />
            <mxPoint x="605" y="570" as="targetPoint" />
          </mxGeometry>
        </mxCell>
        <mxCell id="YNdgiMxRowiNRwup1wCQ-27" value="&lt;span style=&quot;font-size: 16px;&quot;&gt;&lt;b&gt;172.16.111.0/30&lt;br&gt;2000:1111::/124&lt;br&gt;&lt;/b&gt;&lt;/span&gt;" style="text;html=1;strokeColor=none;fillColor=none;align=center;verticalAlign=middle;whiteSpace=wrap;rounded=0;" parent="1" vertex="1">
          <mxGeometry x="590" y="250" width="150" height="60" as="geometry" />
        </mxCell>
        <mxCell id="0yEfnOatGUjBOBFQK73--1" value="&lt;b&gt;10.0.2.0/30&lt;/b&gt;" style="ellipse;whiteSpace=wrap;html=1;strokeWidth=3;dashed=1;" parent="1" vertex="1">
          <mxGeometry x="563" y="440" width="75" height="75" as="geometry" />
        </mxCell>
        <mxCell id="g_sTmzedYTujpbA-pb_F-2" value="" style="shape=or;whiteSpace=wrap;html=1;strokeWidth=3;" parent="1" vertex="1">
          <mxGeometry x="480" y="390" width="45" height="60" as="geometry" />
        </mxCell>
        <mxCell id="g_sTmzedYTujpbA-pb_F-3" value="" style="shape=or;whiteSpace=wrap;html=1;strokeWidth=3;rotation=-180;" parent="1" vertex="1">
          <mxGeometry x="672.5" y="390" width="45" height="60" as="geometry" />
        </mxCell>
        <mxCell id="g_sTmzedYTujpbA-pb_F-4" value="" style="shape=or;whiteSpace=wrap;html=1;strokeWidth=3;rotation=90;" parent="1" vertex="1">
          <mxGeometry x="577.5" y="350" width="45" height="60" as="geometry" />
        </mxCell>
        <mxCell id="g_sTmzedYTujpbA-pb_F-6" value="&lt;span style=&quot;font-size: 16px;&quot;&gt;&lt;b&gt;.1&lt;br&gt;:1&lt;br&gt;&lt;/b&gt;&lt;/span&gt;" style="text;html=1;strokeColor=none;fillColor=none;align=center;verticalAlign=middle;whiteSpace=wrap;rounded=0;" parent="1" vertex="1">
          <mxGeometry x="480" y="390" width="30" height="60" as="geometry" />
        </mxCell>
        <mxCell id="g_sTmzedYTujpbA-pb_F-7" value="&lt;span style=&quot;font-size: 16px;&quot;&gt;&lt;b&gt;.1&lt;br&gt;:1&lt;br&gt;&lt;/b&gt;&lt;/span&gt;" style="text;html=1;strokeColor=none;fillColor=none;align=center;verticalAlign=middle;whiteSpace=wrap;rounded=0;" parent="1" vertex="1">
          <mxGeometry x="680" y="390" width="30" height="60" as="geometry" />
        </mxCell>
        <mxCell id="g_sTmzedYTujpbA-pb_F-8" value="&lt;span style=&quot;font-size: 16px;&quot;&gt;&lt;b&gt;.1&lt;br&gt;:1&lt;br&gt;&lt;/b&gt;&lt;/span&gt;" style="text;html=1;strokeColor=none;fillColor=none;align=center;verticalAlign=middle;whiteSpace=wrap;rounded=0;" parent="1" vertex="1">
          <mxGeometry x="585" y="365" width="30" height="30" as="geometry" />
        </mxCell>
        <mxCell id="g_sTmzedYTujpbA-pb_F-9" value="" style="shape=or;whiteSpace=wrap;html=1;strokeWidth=3;rotation=-90;" parent="1" vertex="1">
          <mxGeometry x="577.5" y="150" width="45" height="60" as="geometry" />
        </mxCell>
        <mxCell id="g_sTmzedYTujpbA-pb_F-10" value="&lt;span style=&quot;font-size: 16px;&quot;&gt;&lt;b&gt;.2&lt;br&gt;:2&lt;br&gt;&lt;/b&gt;&lt;/span&gt;" style="text;html=1;strokeColor=none;fillColor=none;align=center;verticalAlign=middle;whiteSpace=wrap;rounded=0;" parent="1" vertex="1">
          <mxGeometry x="585" y="165" width="30" height="30" as="geometry" />
        </mxCell>
        <mxCell id="g_sTmzedYTujpbA-pb_F-12" value="" style="shape=or;whiteSpace=wrap;html=1;strokeWidth=3;rotation=90;" parent="1" vertex="1">
          <mxGeometry x="257.5" y="630" width="45" height="60" as="geometry" />
        </mxCell>
        <mxCell id="g_sTmzedYTujpbA-pb_F-13" value="" style="shape=or;whiteSpace=wrap;html=1;strokeWidth=3;rotation=-90;" parent="1" vertex="1">
          <mxGeometry x="257.5" y="710" width="45" height="60" as="geometry" />
        </mxCell>
        <mxCell id="g_sTmzedYTujpbA-pb_F-14" value="" style="shape=or;whiteSpace=wrap;html=1;strokeWidth=3;rotation=90;" parent="1" vertex="1">
          <mxGeometry x="897.5" y="630" width="45" height="60" as="geometry" />
        </mxCell>
        <mxCell id="g_sTmzedYTujpbA-pb_F-15" value="" style="shape=or;whiteSpace=wrap;html=1;strokeWidth=3;rotation=-90;" parent="1" vertex="1">
          <mxGeometry x="897.5" y="710" width="45" height="60" as="geometry" />
        </mxCell>
        <mxCell id="g_sTmzedYTujpbA-pb_F-16" value="&lt;span style=&quot;font-size: 16px;&quot;&gt;&lt;b&gt;.2&lt;br&gt;:2&lt;br&gt;&lt;/b&gt;&lt;/span&gt;" style="text;html=1;strokeColor=none;fillColor=none;align=center;verticalAlign=middle;whiteSpace=wrap;rounded=0;" parent="1" vertex="1">
          <mxGeometry x="265" y="645" width="30" height="30" as="geometry" />
        </mxCell>
        <mxCell id="g_sTmzedYTujpbA-pb_F-17" value="&lt;span style=&quot;font-size: 16px;&quot;&gt;&lt;b&gt;.2&lt;br&gt;:2&lt;br&gt;&lt;/b&gt;&lt;/span&gt;" style="text;html=1;strokeColor=none;fillColor=none;align=center;verticalAlign=middle;whiteSpace=wrap;rounded=0;" parent="1" vertex="1">
          <mxGeometry x="905" y="645" width="30" height="30" as="geometry" />
        </mxCell>
        <mxCell id="g_sTmzedYTujpbA-pb_F-18" value="&lt;span style=&quot;font-size: 16px;&quot;&gt;&lt;b&gt;.1&lt;br&gt;:1&lt;br&gt;&lt;/b&gt;&lt;/span&gt;" style="text;html=1;strokeColor=none;fillColor=none;align=center;verticalAlign=middle;whiteSpace=wrap;rounded=0;" parent="1" vertex="1">
          <mxGeometry x="265" y="710" width="30" height="60" as="geometry" />
        </mxCell>
        <mxCell id="g_sTmzedYTujpbA-pb_F-19" value="&lt;span style=&quot;font-size: 16px;&quot;&gt;&lt;b&gt;.1&lt;br&gt;:1&lt;br&gt;&lt;/b&gt;&lt;/span&gt;" style="text;html=1;strokeColor=none;fillColor=none;align=center;verticalAlign=middle;whiteSpace=wrap;rounded=0;" parent="1" vertex="1">
          <mxGeometry x="905" y="710" width="30" height="60" as="geometry" />
        </mxCell>
        <mxCell id="g_sTmzedYTujpbA-pb_F-20" value="" style="shape=or;whiteSpace=wrap;html=1;strokeWidth=3;rotation=90;" parent="1" vertex="1">
          <mxGeometry x="257.5" y="990" width="45" height="60" as="geometry" />
        </mxCell>
        <mxCell id="g_sTmzedYTujpbA-pb_F-21" value="&lt;span style=&quot;font-size: 16px;&quot;&gt;&lt;b&gt;.2&lt;br&gt;:2&lt;br&gt;&lt;/b&gt;&lt;/span&gt;" style="text;html=1;strokeColor=none;fillColor=none;align=center;verticalAlign=middle;whiteSpace=wrap;rounded=0;" parent="1" vertex="1">
          <mxGeometry x="265" y="1005" width="30" height="30" as="geometry" />
        </mxCell>
        <mxCell id="g_sTmzedYTujpbA-pb_F-22" value="" style="shape=or;whiteSpace=wrap;html=1;strokeWidth=3;rotation=90;" parent="1" vertex="1">
          <mxGeometry x="897.5" y="990" width="45" height="60" as="geometry" />
        </mxCell>
        <mxCell id="g_sTmzedYTujpbA-pb_F-23" value="&lt;span style=&quot;font-size: 16px;&quot;&gt;&lt;b&gt;.2&lt;br&gt;:2&lt;br&gt;&lt;/b&gt;&lt;/span&gt;" style="text;html=1;strokeColor=none;fillColor=none;align=center;verticalAlign=middle;whiteSpace=wrap;rounded=0;" parent="1" vertex="1">
          <mxGeometry x="905" y="1005" width="30" height="30" as="geometry" />
        </mxCell>
        <mxCell id="g_sTmzedYTujpbA-pb_F-24" value="" style="shape=or;whiteSpace=wrap;html=1;strokeWidth=3;" parent="1" vertex="1">
          <mxGeometry x="800" y="670" width="45" height="60" as="geometry" />
        </mxCell>
        <mxCell id="g_sTmzedYTujpbA-pb_F-25" value="" style="shape=or;whiteSpace=wrap;html=1;strokeWidth=3;rotation=-180;" parent="1" vertex="1">
          <mxGeometry x="355" y="670" width="45" height="60" as="geometry" />
        </mxCell>
        <mxCell id="g_sTmzedYTujpbA-pb_F-26" value="&lt;span style=&quot;font-size: 16px;&quot;&gt;&lt;b&gt;.1&lt;br&gt;:1&lt;br&gt;&lt;/b&gt;&lt;/span&gt;" style="text;html=1;strokeColor=none;fillColor=none;align=center;verticalAlign=middle;whiteSpace=wrap;rounded=0;" parent="1" vertex="1">
          <mxGeometry x="362.5" y="670" width="30" height="60" as="geometry" />
        </mxCell>
        <mxCell id="g_sTmzedYTujpbA-pb_F-27" value="&lt;span style=&quot;font-size: 16px;&quot;&gt;&lt;b&gt;.2&lt;br&gt;:2&lt;br&gt;&lt;/b&gt;&lt;/span&gt;" style="text;html=1;strokeColor=none;fillColor=none;align=center;verticalAlign=middle;whiteSpace=wrap;rounded=0;" parent="1" vertex="1">
          <mxGeometry x="800" y="685" width="30" height="30" as="geometry" />
        </mxCell>
        <mxCell id="g_sTmzedYTujpbA-pb_F-30" value="&lt;b style=&quot;border-color: var(--border-color);&quot;&gt;enp0s3&lt;/b&gt;" style="text;html=1;strokeColor=none;fillColor=none;align=center;verticalAlign=middle;whiteSpace=wrap;rounded=0;" parent="1" vertex="1">
          <mxGeometry x="570.5" y="450" width="60" height="30" as="geometry" />
        </mxCell>
        <mxCell id="g_sTmzedYTujpbA-pb_F-31" value="&lt;b style=&quot;border-color: var(--border-color);&quot;&gt;enp0s9&lt;/b&gt;" style="text;html=1;strokeColor=none;fillColor=none;align=center;verticalAlign=middle;whiteSpace=wrap;rounded=0;" parent="1" vertex="1">
          <mxGeometry x="520" y="405" width="60" height="30" as="geometry" />
        </mxCell>
        <mxCell id="g_sTmzedYTujpbA-pb_F-32" value="&lt;b style=&quot;border-color: var(--border-color);&quot;&gt;enp0s10&lt;/b&gt;" style="text;html=1;strokeColor=none;fillColor=none;align=center;verticalAlign=middle;whiteSpace=wrap;rounded=0;" parent="1" vertex="1">
          <mxGeometry x="615" y="405" width="60" height="30" as="geometry" />
        </mxCell>
        <mxCell id="g_sTmzedYTujpbA-pb_F-33" value="&lt;b style=&quot;border-color: var(--border-color);&quot;&gt;enp0s8&lt;/b&gt;" style="text;html=1;strokeColor=none;fillColor=none;align=center;verticalAlign=middle;whiteSpace=wrap;rounded=0;" parent="1" vertex="1">
          <mxGeometry x="622.5" y="360" width="60" height="30" as="geometry" />
        </mxCell>
        <mxCell id="g_sTmzedYTujpbA-pb_F-35" value="&lt;b style=&quot;border-color: var(--border-color);&quot;&gt;enp0s3&lt;/b&gt;" style="text;html=1;strokeColor=none;fillColor=none;align=center;verticalAlign=middle;whiteSpace=wrap;rounded=0;" parent="1" vertex="1">
          <mxGeometry x="630" y="170" width="60" height="30" as="geometry" />
        </mxCell>
        <mxCell id="g_sTmzedYTujpbA-pb_F-36" value="&lt;b style=&quot;border-color: var(--border-color);&quot;&gt;enp0s3&lt;/b&gt;" style="text;html=1;strokeColor=none;fillColor=none;align=center;verticalAlign=middle;whiteSpace=wrap;rounded=0;" parent="1" vertex="1">
          <mxGeometry x="302.5" y="640" width="60" height="30" as="geometry" />
        </mxCell>
        <mxCell id="g_sTmzedYTujpbA-pb_F-37" value="&lt;b style=&quot;border-color: var(--border-color);&quot;&gt;enp0s8&lt;/b&gt;" style="text;html=1;strokeColor=none;fillColor=none;align=center;verticalAlign=middle;whiteSpace=wrap;rounded=0;" parent="1" vertex="1">
          <mxGeometry x="302.5" y="730" width="60" height="30" as="geometry" />
        </mxCell>
        <mxCell id="g_sTmzedYTujpbA-pb_F-38" value="&lt;b style=&quot;border-color: var(--border-color);&quot;&gt;enp0s3&lt;/b&gt;" style="text;html=1;strokeColor=none;fillColor=none;align=center;verticalAlign=middle;whiteSpace=wrap;rounded=0;" parent="1" vertex="1">
          <mxGeometry x="942.5" y="640" width="60" height="30" as="geometry" />
        </mxCell>
        <mxCell id="g_sTmzedYTujpbA-pb_F-39" value="&lt;b style=&quot;border-color: var(--border-color);&quot;&gt;enp0s8&lt;/b&gt;" style="text;html=1;strokeColor=none;fillColor=none;align=center;verticalAlign=middle;whiteSpace=wrap;rounded=0;" parent="1" vertex="1">
          <mxGeometry x="942.5" y="730" width="60" height="30" as="geometry" />
        </mxCell>
        <mxCell id="g_sTmzedYTujpbA-pb_F-40" value="&lt;b style=&quot;border-color: var(--border-color);&quot;&gt;enp0s3&lt;/b&gt;" style="text;html=1;strokeColor=none;fillColor=none;align=center;verticalAlign=middle;whiteSpace=wrap;rounded=0;" parent="1" vertex="1">
          <mxGeometry x="302.5" y="1000" width="60" height="30" as="geometry" />
        </mxCell>
        <mxCell id="g_sTmzedYTujpbA-pb_F-41" value="&lt;b style=&quot;border-color: var(--border-color);&quot;&gt;enp0s3&lt;/b&gt;" style="text;html=1;strokeColor=none;fillColor=none;align=center;verticalAlign=middle;whiteSpace=wrap;rounded=0;" parent="1" vertex="1">
          <mxGeometry x="942.5" y="1000" width="60" height="30" as="geometry" />
        </mxCell>
        <mxCell id="g_sTmzedYTujpbA-pb_F-42" value="&lt;b style=&quot;border-color: var(--border-color);&quot;&gt;enp0s9&lt;/b&gt;" style="text;html=1;strokeColor=none;fillColor=none;align=center;verticalAlign=middle;whiteSpace=wrap;rounded=0;" parent="1" vertex="1">
          <mxGeometry x="837.5" y="685" width="60" height="30" as="geometry" />
        </mxCell>
        <mxCell id="g_sTmzedYTujpbA-pb_F-43" value="&lt;b style=&quot;border-color: var(--border-color);&quot;&gt;enp0s9&lt;/b&gt;" style="text;html=1;strokeColor=none;fillColor=none;align=center;verticalAlign=middle;whiteSpace=wrap;rounded=0;" parent="1" vertex="1">
          <mxGeometry x="302.5" y="685" width="60" height="30" as="geometry" />
        </mxCell>
        <mxCell id="LXvlTEwCaF4DiZAtv0i_-1" value="&lt;font style=&quot;font-size: 16px;&quot;&gt;&lt;b&gt;IPSec + GRE over ipv4&lt;/b&gt;&lt;/font&gt;" style="text;html=1;strokeColor=none;fillColor=none;align=center;verticalAlign=middle;whiteSpace=wrap;rounded=0;" parent="1" vertex="1">
          <mxGeometry x="482.5" y="640" width="235" height="30" as="geometry" />
        </mxCell>
        <mxCell id="LXvlTEwCaF4DiZAtv0i_-3" value="&lt;font style=&quot;font-size: 16px;&quot;&gt;&lt;b&gt;10.0.5.0/30&lt;br&gt;2001::/124&lt;br&gt;&lt;/b&gt;&lt;/font&gt;" style="text;html=1;strokeColor=none;fillColor=none;align=center;verticalAlign=middle;whiteSpace=wrap;rounded=0;" parent="1" vertex="1">
          <mxGeometry x="555" y="685" width="90" height="30" as="geometry" />
        </mxCell>
        <mxCell id="LXvlTEwCaF4DiZAtv0i_-5" value="" style="endArrow=none;html=1;rounded=0;exitX=0;exitY=0.5;exitDx=0;exitDy=0;exitPerimeter=0;entryX=0;entryY=0.5;entryDx=0;entryDy=0;strokeWidth=3;fillColor=#f5f5f5;strokeColor=#666666;" parent="1" source="g_sTmzedYTujpbA-pb_F-25" target="g_sTmzedYTujpbA-pb_F-27" edge="1">
          <mxGeometry width="50" height="50" relative="1" as="geometry">
            <mxPoint x="530" y="820" as="sourcePoint" />
            <mxPoint x="580" y="770" as="targetPoint" />
            <Array as="points">
              <mxPoint x="480" y="700" />
              <mxPoint x="480" y="760" />
              <mxPoint x="600" y="760" />
              <mxPoint x="720" y="760" />
              <mxPoint x="720" y="700" />
            </Array>
          </mxGeometry>
        </mxCell>
        <mxCell id="LXvlTEwCaF4DiZAtv0i_-6" value="&lt;font style=&quot;font-size: 16px;&quot;&gt;&lt;b&gt;ospfv2 + ospfv3&lt;/b&gt;&lt;/font&gt;" style="text;html=1;strokeColor=none;fillColor=none;align=center;verticalAlign=middle;whiteSpace=wrap;rounded=0;" parent="1" vertex="1">
          <mxGeometry x="525" y="760" width="150" height="30" as="geometry" />
        </mxCell>
        <mxCell id="LXvlTEwCaF4DiZAtv0i_-7" value="&lt;font style=&quot;font-size: 16px;&quot;&gt;&lt;b&gt;r-id 10.0.5.1&lt;/b&gt;&lt;/font&gt;" style="text;html=1;strokeColor=none;fillColor=none;align=center;verticalAlign=middle;whiteSpace=wrap;rounded=0;" parent="1" vertex="1">
          <mxGeometry x="400" y="760" width="95" height="30" as="geometry" />
        </mxCell>
        <mxCell id="LXvlTEwCaF4DiZAtv0i_-8" value="&lt;font style=&quot;font-size: 16px;&quot;&gt;&lt;b&gt;r-id 10.0.5.2&lt;/b&gt;&lt;/font&gt;" style="text;html=1;strokeColor=none;fillColor=none;align=center;verticalAlign=middle;whiteSpace=wrap;rounded=0;" parent="1" vertex="1">
          <mxGeometry x="705" y="760" width="95" height="30" as="geometry" />
        </mxCell>
        <mxCell id="u71Q9lkVAsnaHdZebVXk-1" value="&lt;b style=&quot;font-size: 14px;&quot;&gt;&lt;span style=&quot;&quot;&gt;DHCP4&lt;br&gt;DHCP6&lt;br&gt;&lt;/span&gt;+&lt;br&gt;RA&lt;/b&gt;" style="text;html=1;strokeColor=none;fillColor=none;align=center;verticalAlign=middle;whiteSpace=wrap;rounded=0;" vertex="1" parent="1">
          <mxGeometry x="205" y="770" width="60" height="70" as="geometry" />
        </mxCell>
        <mxCell id="u71Q9lkVAsnaHdZebVXk-2" value="" style="endArrow=classic;html=1;rounded=0;strokeWidth=2;" edge="1" parent="1">
          <mxGeometry width="50" height="50" relative="1" as="geometry">
            <mxPoint x="190" y="780" as="sourcePoint" />
            <mxPoint x="190" y="830" as="targetPoint" />
          </mxGeometry>
        </mxCell>
      </root>
    </mxGraphModel>
  </diagram>
</mxfile>
